<svg width="113" height="84" viewBox="0 0 113 84" fill="none" xmlns="http://www.w3.org/2000/svg">
<path d="M1 82V2L67.6515 44.5688L1 82Z" stroke="#00FFD1" stroke-opacity="0.49" stroke-width="2"/>
<path d="M16.552 38.216C15.832 38.216 15.24 38.008 14.776 37.592C14.328 37.16 14.104 36.632 14.104 36.008C14.104 35.368 14.328 34.84 14.776 34.424C15.24 33.992 15.832 33.776 16.552 33.776C17.256 33.776 17.832 33.992 18.28 34.424C18.744 34.84 18.976 35.368 18.976 36.008C18.976 36.632 18.744 37.16 18.28 37.592C17.832 38.008 17.256 38.216 16.552 38.216ZM18.592 39.608V53H14.488V39.608H18.592Z" fill="#00FFD1"/>
<path d="M33.6861 36.152V39.44H29.2221V53H25.1181V39.44H20.6541V36.152H33.6861ZM48.9698 39.608V53H44.8658V51.176C44.4498 51.768 43.8818 52.248 43.1618 52.616C42.4578 52.968 41.6738 53.144 40.8098 53.144C39.7858 53.144 38.8818 52.92 38.0978 52.472C37.3138 52.008 36.7058 51.344 36.2738 50.48C35.8418 49.616 35.6258 48.6 35.6258 47.432V39.608H39.7058V46.88C39.7058 47.776 39.9378 48.472 40.4018 48.968C40.8658 49.464 41.4898 49.712 42.2738 49.712C43.0738 49.712 43.7058 49.464 44.1698 48.968C44.6338 48.472 44.8658 47.776 44.8658 46.88V39.608H48.9698ZM60.0777 39.464C61.6457 39.464 62.8937 39.976 63.8217 41C64.7657 42.008 65.2377 43.4 65.2377 45.176V53H61.1577V45.728C61.1577 44.832 60.9257 44.136 60.4617 43.64C59.9977 43.144 59.3737 42.896 58.5897 42.896C57.8057 42.896 57.1817 43.144 56.7177 43.64C56.2537 44.136 56.0217 44.832 56.0217 45.728V53H51.9177V39.608H56.0217V41.384C56.4377 40.792 56.9977 40.328 57.7017 39.992C58.4057 39.64 59.1977 39.464 60.0777 39.464ZM80.7136 46.088C80.7136 46.472 80.6896 46.872 80.6416 47.288H71.3536C71.4176 48.12 71.6816 48.76 72.1456 49.208C72.6256 49.64 73.2096 49.856 73.8976 49.856C74.9216 49.856 75.6336 49.424 76.0336 48.56H80.4016C80.1776 49.44 79.7696 50.232 79.1776 50.936C78.6016 51.64 77.8736 52.192 76.9936 52.592C76.1136 52.992 75.1296 53.192 74.0416 53.192C72.7296 53.192 71.5616 52.912 70.5376 52.352C69.5136 51.792 68.7136 50.992 68.1376 49.952C67.5616 48.912 67.2736 47.696 67.2736 46.304C67.2736 44.912 67.5536 43.696 68.1136 42.656C68.6896 41.616 69.4896 40.816 70.5136 40.256C71.5376 39.696 72.7136 39.416 74.0416 39.416C75.3376 39.416 76.4896 39.688 77.4976 40.232C78.5056 40.776 79.2896 41.552 79.8496 42.56C80.4256 43.568 80.7136 44.744 80.7136 46.088ZM76.5136 45.008C76.5136 44.304 76.2736 43.744 75.7936 43.328C75.3136 42.912 74.7136 42.704 73.9936 42.704C73.3056 42.704 72.7216 42.904 72.2416 43.304C71.7776 43.704 71.4896 44.272 71.3776 45.008H76.5136ZM88.3266 53.192C87.1586 53.192 86.1186 52.992 85.2066 52.592C84.2946 52.192 83.5746 51.648 83.0466 50.96C82.5186 50.256 82.2226 49.472 82.1586 48.608H86.2146C86.2626 49.072 86.4786 49.448 86.8626 49.736C87.2466 50.024 87.7186 50.168 88.2786 50.168C88.7906 50.168 89.1826 50.072 89.4546 49.88C89.7426 49.672 89.8866 49.408 89.8866 49.088C89.8866 48.704 89.6866 48.424 89.2866 48.248C88.8866 48.056 88.2386 47.848 87.3426 47.624C86.3826 47.4 85.5826 47.168 84.9426 46.928C84.3026 46.672 83.7506 46.28 83.2866 45.752C82.8226 45.208 82.5906 44.48 82.5906 43.568C82.5906 42.8 82.7986 42.104 83.2146 41.48C83.6466 40.84 84.2706 40.336 85.0866 39.968C85.9186 39.6 86.9026 39.416 88.0386 39.416C89.7186 39.416 91.0386 39.832 91.9986 40.664C92.9746 41.496 93.5346 42.6 93.6786 43.976H89.8866C89.8226 43.512 89.6146 43.144 89.2626 42.872C88.9266 42.6 88.4786 42.464 87.9186 42.464C87.4386 42.464 87.0706 42.56 86.8146 42.752C86.5586 42.928 86.4306 43.176 86.4306 43.496C86.4306 43.88 86.6306 44.168 87.0306 44.36C87.4466 44.552 88.0866 44.744 88.9506 44.936C89.9426 45.192 90.7506 45.448 91.3746 45.704C91.9986 45.944 92.5426 46.344 93.0066 46.904C93.4866 47.448 93.7346 48.184 93.7506 49.112C93.7506 49.896 93.5266 50.6 93.0786 51.224C92.6466 51.832 92.0146 52.312 91.1826 52.664C90.3666 53.016 89.4146 53.192 88.3266 53.192Z" fill="white"/>
</svg>
